<svg width="51" height="50" viewBox="0 0 51 50" fill="none" xmlns="http://www.w3.org/2000/svg">
<path fill-rule="evenodd" clip-rule="evenodd" d="M25.5 0C11.6813 0 0.5 11.1823 0.5 25C0.5 38.8187 11.6823 50 25.5 50C39.3187 50 50.5 38.8177 50.5 25C50.5 11.1813 39.3177 0 25.5 0ZM25.5 12.5871C24.4213 12.5871 23.5469 13.4615 23.5469 14.5402V27.1177C23.5469 28.1964 24.4213 29.0708 25.5 29.0708C26.5787 29.0708 27.4531 28.1964 27.4531 27.1177V14.5402C27.4531 13.4615 26.5787 12.5871 25.5 12.5871ZM25.5 36.736C26.9562 36.736 28.1367 35.5555 28.1367 34.0993C28.1367 32.643 26.9562 31.4625 25.5 31.4625C24.0438 31.4625 22.8633 32.643 22.8633 34.0993C22.8633 35.5555 24.0438 36.736 25.5 36.736Z" fill="#FFBB33"/>
</svg>
