<svg xmlns="http://www.w3.org/2000/svg" version="1.1" xmlns:xlink="http://www.w3.org/1999/xlink" xmlns:svgjs="http://svgjs.com/svgjs" width="1600" height="1200" preserveAspectRatio="none" viewBox="0 0 1600 1200"><g mask="url(&quot;#SvgjsMask5690&quot;)" fill="none"><rect width="1600" height="1200" x="0" y="0" fill="url(#SvgjsLinearGradient5691)"></rect><path d="M0 0L739.35 0L0 294.54z" fill="rgba(255, 255, 255, .1)"></path><path d="M0 294.54L739.35 0L759.45 0L0 304.44z" fill="rgba(255, 255, 255, .075)"></path><path d="M0 304.44L759.45 0L1046.71 0L0 583.45z" fill="rgba(255, 255, 255, .05)"></path><path d="M0 583.45L1046.71 0L1129.0900000000001 0L0 975.1600000000001z" fill="rgba(255, 255, 255, .025)"></path><path d="M1600 1200L1474.78 1200L1600 738.01z" fill="rgba(0, 0, 0, .1)"></path><path d="M1600 738.01L1474.78 1200L1460.54 1200L1600 444.78z" fill="rgba(0, 0, 0, .075)"></path><path d="M1600 444.78L1460.54 1200L1422.53 1200L1600 236.97999999999996z" fill="rgba(0, 0, 0, .05)"></path><path d="M1600 236.98000000000002L1422.53 1200L803.14 1200L1600 209.88000000000002z" fill="rgba(0, 0, 0, .025)"></path></g><defs><mask id="SvgjsMask5690"><rect width="1600" height="1200" fill="#ffffff"></rect></mask><linearGradient x1="0%" y1="50%" x2="100%" y2="50%" gradientUnits="userSpaceOnUse" id="SvgjsLinearGradient5691"><stop stop-color="rgba(4, 49, 83, 1)" offset="0.01"></stop><stop stop-color="rgba(28, 142, 171, 1)" offset="1"></stop></linearGradient></defs></svg>