<svg width="24" height="24" viewBox="0 0 24 24" fill="none" xmlns="http://www.w3.org/2000/svg">
<path fill-rule="evenodd" clip-rule="evenodd" d="M12.0003 4.28516C16.3653 4.28516 20.3828 6.84516 22.2353 10.8077C22.5903 11.5652 22.5903 12.4352 22.2353 13.1927C20.3828 17.1552 16.3653 19.7152 12.0003 19.7152C7.63527 19.7152 3.61777 17.1552 1.76527 13.1952C1.41027 12.4352 1.41027 11.5652 1.76527 10.8077C3.61777 6.84516 7.63527 4.28516 12.0003 4.28516ZM8.04027 12.0002C8.04027 14.1827 9.81527 15.9602 12.0003 15.9602C14.1853 15.9602 15.9603 14.1852 15.9603 12.0002C15.9603 9.81516 14.1853 8.03766 12.0003 8.03766C9.81527 8.03766 8.04027 9.81766 8.04027 12.0002ZM14.4603 12C14.4603 13.3587 13.3589 14.46 12.0003 14.46C10.6417 14.46 9.54028 13.3587 9.54028 12C9.54028 10.6414 10.6417 9.54004 12.0003 9.54004C13.3589 9.54004 14.4603 10.6414 14.4603 12Z" fill="black" fill-opacity="0.65"/>
</svg>
