<svg width="32" height="32" viewBox="0 0 32 32" fill="none" xmlns="http://www.w3.org/2000/svg">
<rect x="0.5" y="0.5" width="31" height="31" rx="3.5" fill="#E0E0E0" stroke="#B5B5B5" stroke-linecap="round" stroke-dasharray="5 5"/>
<path d="M11.5664 22H13.8224V17.616H16.4464C16.9744 17.616 17.3904 17.728 17.6944 18.032C18.0144 18.368 18.2704 18.8 18.7184 22H21.0064C20.3824 17.904 20.1264 17.152 18.7664 16.832V16.8C19.9024 16.528 20.7344 15.44 20.7344 13.968C20.7344 12.144 19.3424 10.944 17.3744 10.944H11.5664V22ZM13.8224 16V12.704H16.6224C17.8064 12.704 18.4784 13.2 18.4784 14.336C18.4784 15.472 17.7264 16 16.6704 16H13.8224Z" fill="#141414"/>
</svg>
